<?xml version="1.0" encoding="UTF-8"?>
<!DOCTYPE svg PUBLIC "-//W3C//DTD SVG 1.1//EN" "http://www.w3.org/Graphics/SVG/1.1/DTD/svg11.dtd">
<svg xmlns="http://www.w3.org/2000/svg" version="1.1" width="480px" height="480px" style="shape-rendering:geometricPrecision; text-rendering:geometricPrecision; image-rendering:optimizeQuality; fill-rule:evenodd; clip-rule:evenodd" xmlns:xlink="http://www.w3.org/1999/xlink">
<g><path style="opacity:0.006" fill="#000000" d="M 209.5,89.5 C 208.414,89.38 207.747,88.7133 207.5,87.5C 207.537,82.7091 205.371,79.3757 201,77.5C 196,76.1667 191,76.1667 186,77.5C 184.007,78.914 181.84,79.914 179.5,80.5C 181.734,77.7024 184.734,75.869 188.5,75C 195.523,73.354 201.689,74.854 207,79.5C 209.006,82.5358 209.84,85.8691 209.5,89.5 Z"/></g>
<g><path style="opacity:0.006" fill="#000000" d="M 179.5,80.5 C 179.611,81.1174 179.944,81.6174 180.5,82C 176.35,86.1429 173.183,90.9762 171,96.5C 170.768,100.555 170.268,104.555 169.5,108.5C 155.638,117.857 144.805,129.857 137,144.5C 133.704,157.569 133.204,170.903 135.5,184.5C 135.137,185.183 134.804,185.85 134.5,186.5C 128.124,163.634 132.458,142.968 147.5,124.5C 153.795,118.359 160.462,112.692 167.5,107.5C 168.268,101.749 169.435,96.0826 171,90.5C 173.001,86.342 175.834,83.0087 179.5,80.5 Z"/></g>
<g><path style="opacity:0.006" fill="#000000" d="M 209.5,89.5 C 216.611,91.3749 223.611,93.8749 230.5,97C 234.593,100.04 237.593,103.873 239.5,108.5C 236.227,105.989 233.394,102.989 231,99.5C 230.667,99.8333 230.333,100.167 230,100.5C 224.642,95.401 218.476,92.901 211.5,93C 210.027,92.2904 209.36,91.1238 209.5,89.5 Z"/></g>
<g><path style="opacity:0.005" fill="#000000" d="M 241.5,110.5 C 248.944,114.546 255.611,119.546 261.5,125.5C 257.214,124.07 253.547,121.57 250.5,118C 246.206,116.879 243.206,114.379 241.5,110.5 Z"/></g>
<g><path style="opacity:0.006" fill="#000000" d="M 348.5,224.5 C 347.833,224.5 347.167,224.5 346.5,224.5C 348.57,214.651 350.57,204.818 352.5,195C 352.167,194.667 351.833,194.333 351.5,194C 352.789,184.521 354.123,175.021 355.5,165.5C 355.291,164.914 354.957,164.414 354.5,164C 355.309,158.583 355.809,153.083 356,147.5C 359.276,142.784 362.609,138.118 366,133.5C 368.564,126.252 366.731,120.418 360.5,116C 357.549,115.904 354.882,115.071 352.5,113.5C 347.111,115.154 341.611,116.487 336,117.5C 322.839,122.694 309.339,127.694 295.5,132.5C 310.154,125.019 325.487,118.852 341.5,114C 348.986,111.684 356.32,112.017 363.5,115C 367.633,117.933 369.633,121.933 369.5,127C 368.525,135.056 364.692,141.556 358,146.5C 356.466,165.181 354.799,183.848 353,202.5C 352.115,209.98 350.615,217.313 348.5,224.5 Z"/></g>
<g><path style="opacity:1" fill="#d3ccda" d="M 298.5,150.5 C 306.493,147.923 314.493,145.257 322.5,142.5C 324.167,142.833 325.167,143.833 325.5,145.5C 321.173,147.665 317.173,150.331 313.5,153.5C 312.254,157.254 310.754,160.921 309,164.5C 309.423,160.05 310.59,155.716 312.5,151.5C 312.167,151.167 311.833,150.833 311.5,150.5C 310.012,155.483 307.679,159.983 304.5,164C 294.95,166.543 288.116,172.377 284,181.5C 281.307,188.739 279.141,196.072 277.5,203.5C 273.486,203.334 269.486,203.501 265.5,204C 253.876,221.414 242.376,238.914 231,256.5C 232.834,245.819 235.001,235.153 237.5,224.5C 231.907,224.193 226.407,224.527 221,225.5C 218.541,234.793 216.208,244.126 214,253.5C 212.729,254.883 211.229,255.883 209.5,256.5C 207.901,256.768 206.568,256.434 205.5,255.5C 206.833,252.833 206.833,250.167 205.5,247.5C 207.639,239.942 209.306,232.275 210.5,224.5C 208.5,224.5 206.5,224.5 204.5,224.5C 206.607,223.532 208.941,223.198 211.5,223.5C 211.472,221.418 212.139,219.584 213.5,218C 217.52,215.276 221.854,213.442 226.5,212.5C 227.298,209.511 228.798,206.845 231,204.5C 233.904,196.919 231.737,191.419 224.5,188C 218.657,186.489 212.991,184.489 207.5,182C 202.336,181.09 197.336,181.59 192.5,183.5C 188.876,191.214 182.876,194.048 174.5,192C 171.478,191.148 168.811,189.648 166.5,187.5C 163.094,182.25 161.094,176.75 160.5,171C 158.778,165.384 157.778,159.884 157.5,154.5C 157.896,150.581 159.063,146.914 161,143.5C 171.194,131.269 183.527,122.269 198,116.5C 198.333,116.833 198.667,117.167 199,117.5C 201.101,116.076 203.267,114.742 205.5,113.5C 206.748,114.04 207.915,114.707 209,115.5C 211.747,121.908 216.58,125.742 223.5,127C 229.18,134.687 233.847,143.02 237.5,152C 236.223,154.466 236.223,156.966 237.5,159.5C 240.173,160.501 242.507,162.001 244.5,164C 248.483,164.64 252.483,165.14 256.5,165.5C 271.726,163.649 285.726,158.649 298.5,150.5 Z"/></g>
<g><path style="opacity:0.185" fill="#220448" d="M 209.5,89.5 C 209.36,91.1238 210.027,92.2904 211.5,93C 218.476,92.901 224.642,95.401 230,100.5C 230.333,100.167 230.667,99.8333 231,99.5C 233.394,102.989 236.227,105.989 239.5,108.5C 240.833,108.5 241.5,109.167 241.5,110.5C 243.206,114.379 246.206,116.879 250.5,118C 253.547,121.57 257.214,124.07 261.5,125.5C 261.281,126.675 261.614,127.675 262.5,128.5C 265.833,131.833 269.167,135.167 272.5,138.5C 274.059,139.447 275.726,140.113 277.5,140.5C 282.498,139.47 286.998,137.47 291,134.5C 291.333,134.833 291.667,135.167 292,135.5C 293.729,135.026 294.895,134.026 295.5,132.5C 309.339,127.694 322.839,122.694 336,117.5C 341.611,116.487 347.111,115.154 352.5,113.5C 354.882,115.071 357.549,115.904 360.5,116C 366.731,120.418 368.564,126.252 366,133.5C 362.609,138.118 359.276,142.784 356,147.5C 355.809,153.083 355.309,158.583 354.5,164C 354.957,164.414 355.291,164.914 355.5,165.5C 354.123,175.021 352.789,184.521 351.5,194C 351.833,194.333 352.167,194.667 352.5,195C 350.57,204.818 348.57,214.651 346.5,224.5C 341.663,224.241 339.33,226.574 339.5,231.5C 338.391,231.443 337.391,231.11 336.5,230.5C 340.075,220.467 342.575,210.134 344,199.5C 345.749,180.176 347.416,160.842 349,141.5C 354.939,137.037 358.105,131.037 358.5,123.5C 354.774,123.177 351.107,123.511 347.5,124.5C 345.668,125.057 344.335,126.057 343.5,127.5C 338.284,127.134 333.284,127.968 328.5,130C 319.654,133.919 310.654,137.586 301.5,141C 299.248,143.887 296.248,145.22 292.5,145C 286.203,147.535 280.036,150.035 274,152.5C 263.912,141.797 253.078,131.964 241.5,123C 239.19,122.503 236.857,122.337 234.5,122.5C 231.858,116.577 228.191,111.244 223.5,106.5C 216.614,103.213 209.281,101.38 201.5,101C 200.667,100.167 199.833,99.3333 199,98.5C 199.017,94.5246 199.184,90.5246 199.5,86.5C 196.15,86.335 192.817,86.5017 189.5,87C 188.012,88.7172 186.179,89.8839 184,90.5C 182.561,92.2746 181.561,94.2746 181,96.5C 180.667,101.833 180.333,107.167 180,112.5C 175.321,115.211 171.821,118.878 169.5,123.5C 169.167,124.167 168.833,124.833 168.5,125.5C 165.48,128.516 162.146,131.183 158.5,133.5C 153.346,135.822 149.679,139.656 147.5,145C 142.371,156.748 141.205,168.914 144,181.5C 145,185.5 146,189.5 147,193.5C 150.203,197.296 152.369,201.629 153.5,206.5C 146.234,206.853 139.234,208.353 132.5,211C 130.147,216.578 127.147,221.745 123.5,226.5C 121.106,227.015 118.772,227.681 116.5,228.5C 116.048,212.74 123.382,203.073 138.5,199.5C 138.534,194.605 137.2,190.272 134.5,186.5C 134.804,185.85 135.137,185.183 135.5,184.5C 133.204,170.903 133.704,157.569 137,144.5C 144.805,129.857 155.638,117.857 169.5,108.5C 170.268,104.555 170.768,100.555 171,96.5C 173.183,90.9762 176.35,86.1429 180.5,82C 179.944,81.6174 179.611,81.1174 179.5,80.5C 181.84,79.914 184.007,78.914 186,77.5C 191,76.1667 196,76.1667 201,77.5C 205.371,79.3757 207.537,82.7091 207.5,87.5C 207.747,88.7133 208.414,89.38 209.5,89.5 Z"/></g>
<g><path style="opacity:0.945" fill="#9c8eab" d="M 342.5,136.5 C 337.332,135.367 332.332,136.034 327.5,138.5C 327.083,137.876 326.416,137.543 325.5,137.5C 318.801,139.633 312.134,141.633 305.5,143.5C 317.604,137.348 330.271,132.348 343.5,128.5C 345.861,128.326 348.194,127.993 350.5,127.5C 349.269,131.734 346.602,134.734 342.5,136.5 Z"/></g>
<g><path style="opacity:0.729" fill="#2a1146" d="M 234.5,122.5 C 236.857,122.337 239.19,122.503 241.5,123C 253.078,131.964 263.912,141.797 274,152.5C 280.036,150.035 286.203,147.535 292.5,145C 296.248,145.22 299.248,143.887 301.5,141C 310.654,137.586 319.654,133.919 328.5,130C 333.284,127.968 338.284,127.134 343.5,127.5C 343.5,127.833 343.5,128.167 343.5,128.5C 330.271,132.348 317.604,137.348 305.5,143.5C 291.854,148.653 278.188,153.82 264.5,159C 258.509,159.499 252.509,159.666 246.5,159.5C 250.316,158.518 254.316,157.851 258.5,157.5C 261.655,156.584 264.822,155.584 268,154.5C 269.257,154.15 269.591,153.483 269,152.5C 258.836,140.827 247.336,130.827 234.5,122.5 Z"/></g>
<g><path style="opacity:0.729" fill="#6a5582" d="M 347.5,136.5 C 345.668,138.957 344.001,138.957 342.5,136.5C 346.602,134.734 349.269,131.734 350.5,127.5C 348.194,127.993 345.861,128.326 343.5,128.5C 343.5,128.167 343.5,127.833 343.5,127.5C 347.5,126.833 351.5,126.167 355.5,125.5C 354.381,130.287 351.714,133.953 347.5,136.5 Z"/></g>
<g><path style="opacity:0.006" fill="#000000" d="M 261.5,125.5 C 266.548,129.037 271.214,133.204 275.5,138C 277.167,138.667 278.833,138.667 280.5,138C 285.207,135.265 290.207,133.432 295.5,132.5C 294.895,134.026 293.729,135.026 292,135.5C 291.667,135.167 291.333,134.833 291,134.5C 286.998,137.47 282.498,139.47 277.5,140.5C 275.726,140.113 274.059,139.447 272.5,138.5C 269.167,135.167 265.833,131.833 262.5,128.5C 261.614,127.675 261.281,126.675 261.5,125.5 Z"/></g>
<g><path style="opacity:0.725" fill="#685280" d="M 233.5,122.5 C 233.833,122.5 234.167,122.5 234.5,122.5C 247.336,130.827 258.836,140.827 269,152.5C 269.591,153.483 269.257,154.15 268,154.5C 264.822,155.584 261.655,156.584 258.5,157.5C 256.52,155.895 254.187,154.728 251.5,154C 243.819,144.472 237.819,133.972 233.5,122.5 Z"/></g>
<g><path style="opacity:0.792" fill="#2a1145" d="M 234.5,122.5 C 234.167,122.5 233.833,122.5 233.5,122.5C 229.979,120.771 226.313,119.438 222.5,118.5C 222.389,117.883 222.056,117.383 221.5,117C 223.473,116.505 225.473,116.338 227.5,116.5C 225.674,110.682 221.674,107.349 215.5,106.5C 209.584,105.686 203.917,104.186 198.5,102C 197.667,101.167 196.833,100.333 196,99.5C 195.421,95.7973 195.588,92.1306 196.5,88.5C 193.058,87.8283 190.391,88.8283 188.5,91.5C 182.647,96.2063 180.98,102.206 183.5,109.5C 187.135,108.886 190.802,108.552 194.5,108.5C 196.199,108.34 197.866,108.506 199.5,109C 197.942,109.21 196.609,109.71 195.5,110.5C 192.729,110.421 190.063,110.921 187.5,112C 181.274,115.605 175.274,119.438 169.5,123.5C 171.821,118.878 175.321,115.211 180,112.5C 180.333,107.167 180.667,101.833 181,96.5C 181.561,94.2746 182.561,92.2746 184,90.5C 186.179,89.8839 188.012,88.7172 189.5,87C 192.817,86.5017 196.15,86.335 199.5,86.5C 199.184,90.5246 199.017,94.5246 199,98.5C 199.833,99.3333 200.667,100.167 201.5,101C 209.281,101.38 216.614,103.213 223.5,106.5C 228.191,111.244 231.858,116.577 234.5,122.5 Z"/></g>
<g><path style="opacity:0.814" fill="#66507e" d="M 215.5,106.5 C 221.674,107.349 225.674,110.682 227.5,116.5C 225.473,116.338 223.473,116.505 221.5,117C 222.056,117.383 222.389,117.883 222.5,118.5C 220.685,117.37 218.685,116.704 216.5,116.5C 217.209,115.596 218.209,115.263 219.5,115.5C 219.66,113.801 219.494,112.134 219,110.5C 217.624,109.295 216.458,107.962 215.5,106.5 Z"/></g>
<g><path style="opacity:0.776" fill="#685280" d="M 188.5,91.5 C 184.544,99.2571 186.544,104.924 194.5,108.5C 190.802,108.552 187.135,108.886 183.5,109.5C 180.98,102.206 182.647,96.2063 188.5,91.5 Z"/></g>
<g><path style="opacity:0.94" fill="#a699b4" d="M 215.5,106.5 C 216.458,107.962 217.624,109.295 219,110.5C 219.494,112.134 219.66,113.801 219.5,115.5C 218.209,115.263 217.209,115.596 216.5,116.5C 214.883,115.411 214.05,113.744 214,111.5C 213.097,110.299 211.931,109.465 210.5,109C 205.47,109.005 200.47,109.505 195.5,110.5C 196.609,109.71 197.942,109.21 199.5,109C 197.866,108.506 196.199,108.34 194.5,108.5C 186.544,104.924 184.544,99.2571 188.5,91.5C 190.391,88.8283 193.058,87.8283 196.5,88.5C 195.588,92.1306 195.421,95.7973 196,99.5C 196.833,100.333 197.667,101.167 198.5,102C 203.917,104.186 209.584,105.686 215.5,106.5 Z"/></g>
<g><path style="opacity:0.941" fill="#a294b0" d="M 216.5,116.5 C 218.685,116.704 220.685,117.37 222.5,118.5C 226.313,119.438 229.979,120.771 233.5,122.5C 237.819,133.972 243.819,144.472 251.5,154C 254.187,154.728 256.52,155.895 258.5,157.5C 254.316,157.851 250.316,158.518 246.5,159.5C 243.927,159.852 241.594,159.352 239.5,158C 242.5,157.667 245.5,157.333 248.5,157C 241.455,147.085 235.288,136.585 230,125.5C 225.45,122.399 220.95,119.399 216.5,116.5 Z"/></g>
<g><path style="opacity:0.961" fill="#a79ab4" d="M 168.5,125.5 C 166.795,132.05 162.961,137.05 157,140.5C 156.108,143.952 154.442,146.952 152,149.5C 151.833,151.667 151.667,153.833 151.5,156C 154.122,167.443 156.622,178.943 159,190.5C 160.793,193.468 163.293,195.468 166.5,196.5C 165.833,197.833 164.833,198.833 163.5,199.5C 152.476,184.202 147.81,166.869 149.5,147.5C 151.681,142.317 154.681,137.65 158.5,133.5C 162.146,131.183 165.48,128.516 168.5,125.5 Z"/></g>
<g><path style="opacity:0.986" fill="#53266b" d="M 341.5,144.5 C 342.787,145.871 343.453,147.705 343.5,150C 342.591,176.177 339.258,202.011 333.5,227.5C 330.603,226.871 327.936,225.871 325.5,224.5C 326.978,224.762 328.311,224.429 329.5,223.5C 328.675,221.199 328.008,218.865 327.5,216.5C 329.036,196.2 329.703,175.866 329.5,155.5C 332.901,151.096 336.901,147.429 341.5,144.5 Z"/></g>
<g><path style="opacity:0.727" fill="#280e45" d="M 158.5,133.5 C 154.681,137.65 151.681,142.317 149.5,147.5C 143.197,167.443 145.53,186.443 156.5,204.5C 156.414,205.496 156.748,206.329 157.5,207C 156.29,208.039 155.29,209.206 154.5,210.5C 152.5,210.5 150.5,210.5 148.5,210.5C 137.176,209.509 130.509,214.509 128.5,225.5C 126.784,225.629 125.117,225.962 123.5,226.5C 127.147,221.745 130.147,216.578 132.5,211C 139.234,208.353 146.234,206.853 153.5,206.5C 152.369,201.629 150.203,197.296 147,193.5C 146,189.5 145,185.5 144,181.5C 141.205,168.914 142.371,156.748 147.5,145C 149.679,139.656 153.346,135.822 158.5,133.5 Z"/></g>
<g><path style="opacity:0.969" fill="#c1b8ca" d="M 295.5,183.5 C 297.426,178.385 300.426,173.885 304.5,170C 297.812,172.688 292.978,177.521 290,184.5C 289.261,187.546 288.428,190.546 287.5,193.5C 285.204,201.878 284.204,210.544 284.5,219.5C 283.65,214.267 282.65,208.934 281.5,203.5C 280.167,203.5 278.833,203.5 277.5,203.5C 279.141,196.072 281.307,188.739 284,181.5C 288.116,172.377 294.95,166.543 304.5,164C 307.679,159.983 310.012,155.483 311.5,150.5C 311.833,150.833 312.167,151.167 312.5,151.5C 310.59,155.716 309.423,160.05 309,164.5C 310.754,160.921 312.254,157.254 313.5,153.5C 317.173,150.331 321.173,147.665 325.5,145.5C 325.167,143.833 324.167,142.833 322.5,142.5C 314.493,145.257 306.493,147.923 298.5,150.5C 300.428,148.526 302.761,147.026 305.5,146C 308.861,145.946 311.861,144.946 314.5,143C 320.279,141.222 325.946,141.222 331.5,143C 330.167,143.667 330.167,144.333 331.5,145C 326.548,148.246 321.548,151.412 316.5,154.5C 315.558,159.501 313.558,164.001 310.5,168C 309.178,183.51 307.845,199.01 306.5,214.5C 302.83,214.673 300.33,213.007 299,209.5C 297.721,200.829 296.554,192.162 295.5,183.5 Z"/></g>
<g><path style="opacity:0.943" fill="#2a1145" d="M 342.5,136.5 C 344.001,138.957 345.668,138.957 347.5,136.5C 347.5,137.5 347.5,138.5 347.5,139.5C 345.801,139.34 344.134,139.506 342.5,140C 343.581,141.711 343.248,143.211 341.5,144.5C 336.901,147.429 332.901,151.096 329.5,155.5C 327.36,157.7 325.86,160.367 325,163.5C 322.822,176.091 322.155,188.758 323,201.5C 324.058,206.756 325.558,211.756 327.5,216.5C 328.008,218.865 328.675,221.199 329.5,223.5C 328.311,224.429 326.978,224.762 325.5,224.5C 316.849,202.146 316.182,179.479 323.5,156.5C 321.785,156.405 320.119,156.072 318.5,155.5C 325.961,151.258 332.961,146.258 339.5,140.5C 336.182,139.33 332.849,139.33 329.5,140.5C 328.287,140.253 327.62,139.586 327.5,138.5C 332.332,136.034 337.332,135.367 342.5,136.5 Z"/></g>
<g><path style="opacity:0.941" fill="#aa9db7" d="M 327.5,138.5 C 327.62,139.586 328.287,140.253 329.5,140.5C 332.849,139.33 336.182,139.33 339.5,140.5C 332.961,146.258 325.961,151.258 318.5,155.5C 316.108,161.317 313.941,167.65 312,174.5C 311.667,187.167 311.333,199.833 311,212.5C 310.356,215.609 309.189,218.443 307.5,221C 305.5,221.667 303.5,221.667 301.5,221C 299.031,218.559 297.198,215.726 296,212.5C 294.661,203.893 294.161,195.226 294.5,186.5C 294.263,185.209 294.596,184.209 295.5,183.5C 296.554,192.162 297.721,200.829 299,209.5C 300.33,213.007 302.83,214.673 306.5,214.5C 307.845,199.01 309.178,183.51 310.5,168C 313.558,164.001 315.558,159.501 316.5,154.5C 321.548,151.412 326.548,148.246 331.5,145C 330.167,144.333 330.167,143.667 331.5,143C 325.946,141.222 320.279,141.222 314.5,143C 311.861,144.946 308.861,145.946 305.5,146C 302.761,147.026 300.428,148.526 298.5,150.5C 289.228,153.758 279.895,156.924 270.5,160C 262.313,162.08 254.313,161.913 246.5,159.5C 252.509,159.666 258.509,159.499 264.5,159C 278.188,153.82 291.854,148.653 305.5,143.5C 312.134,141.633 318.801,139.633 325.5,137.5C 326.416,137.543 327.083,137.876 327.5,138.5 Z"/></g>
<g><path style="opacity:0.972" fill="#3d1a51" d="M 329.5,155.5 C 329.703,175.866 329.036,196.2 327.5,216.5C 325.558,211.756 324.058,206.756 323,201.5C 322.155,188.758 322.822,176.091 325,163.5C 325.86,160.367 327.36,157.7 329.5,155.5 Z"/></g>
<g><path style="opacity:0.74" fill="#695481" d="M 149.5,147.5 C 147.81,166.869 152.476,184.202 163.5,199.5C 162.639,201.386 161.639,203.22 160.5,205C 159.072,205.579 157.738,205.412 156.5,204.5C 145.53,186.443 143.197,167.443 149.5,147.5 Z"/></g>
<g><path style="opacity:0.967" fill="#311f47" d="M 295.5,183.5 C 294.596,184.209 294.263,185.209 294.5,186.5C 293.883,186.611 293.383,186.944 293,187.5C 290.879,193.366 289.046,199.366 287.5,205.5C 287.142,201.599 287.142,197.599 287.5,193.5C 288.428,190.546 289.261,187.546 290,184.5C 292.978,177.521 297.812,172.688 304.5,170C 300.426,173.885 297.426,178.385 295.5,183.5 Z"/></g>
<g><path style="opacity:0.006" fill="#000000" d="M 134.5,186.5 C 137.2,190.272 138.534,194.605 138.5,199.5C 123.382,203.073 116.048,212.74 116.5,228.5C 115.609,229.11 114.609,229.443 113.5,229.5C 113.906,218.437 118.239,209.27 126.5,202C 129.561,199.965 132.895,198.799 136.5,198.5C 135.624,194.538 134.958,190.538 134.5,186.5 Z"/></g>
<g><path style="opacity:0.986" fill="#2b1444" d="M 203.5,224.5 C 198.5,224.5 193.5,224.5 188.5,224.5C 192.815,217.033 199.148,211.866 207.5,209C 208.386,207.385 209.386,205.885 210.5,204.5C 211.833,203.167 211.833,201.833 210.5,200.5C 208.527,199.837 206.361,199.504 204,199.5C 200.523,199.328 197.356,199.994 194.5,201.5C 187.121,203.347 179.788,205.513 172.5,208C 166.63,209.801 160.63,210.635 154.5,210.5C 155.29,209.206 156.29,208.039 157.5,207C 156.748,206.329 156.414,205.496 156.5,204.5C 157.738,205.412 159.072,205.579 160.5,205C 161.639,203.22 162.639,201.386 163.5,199.5C 164.833,198.833 165.833,197.833 166.5,196.5C 168.402,195.489 170.402,195.322 172.5,196C 175.001,197.673 177.334,199.507 179.5,201.5C 184.085,199.854 188.752,198.521 193.5,197.5C 192.891,188.614 196.891,185.447 205.5,188C 211.249,191.799 217.582,193.466 224.5,193C 227.48,197.806 226.813,202.139 222.5,206C 219.861,207.946 216.861,208.946 213.5,209C 210.64,211.36 207.64,213.527 204.5,215.5C 203.516,218.428 203.183,221.428 203.5,224.5 Z"/></g>
<g><path style="opacity:0.992" fill="#c5bdce" d="M 216.5,116.5 C 220.95,119.399 225.45,122.399 230,125.5C 235.288,136.585 241.455,147.085 248.5,157C 245.5,157.333 242.5,157.667 239.5,158C 241.594,159.352 243.927,159.852 246.5,159.5C 254.313,161.913 262.313,162.08 270.5,160C 279.895,156.924 289.228,153.758 298.5,150.5C 285.726,158.649 271.726,163.649 256.5,165.5C 252.483,165.14 248.483,164.64 244.5,164C 242.507,162.001 240.173,160.501 237.5,159.5C 236.223,156.966 236.223,154.466 237.5,152C 233.847,143.02 229.18,134.687 223.5,127C 216.58,125.742 211.747,121.908 209,115.5C 207.915,114.707 206.748,114.04 205.5,113.5C 203.267,114.742 201.101,116.076 199,117.5C 198.667,117.167 198.333,116.833 198,116.5C 183.527,122.269 171.194,131.269 161,143.5C 159.063,146.914 157.896,150.581 157.5,154.5C 157.778,159.884 158.778,165.384 160.5,171C 161.094,176.75 163.094,182.25 166.5,187.5C 168.811,189.648 171.478,191.148 174.5,192C 182.876,194.048 188.876,191.214 192.5,183.5C 197.336,181.59 202.336,181.09 207.5,182C 212.991,184.489 218.657,186.489 224.5,188C 231.737,191.419 233.904,196.919 231,204.5C 228.798,206.845 227.298,209.511 226.5,212.5C 221.854,213.442 217.52,215.276 213.5,218C 212.139,219.584 211.472,221.418 211.5,223.5C 208.941,223.198 206.607,223.532 204.5,224.5C 204.167,224.5 203.833,224.5 203.5,224.5C 203.183,221.428 203.516,218.428 204.5,215.5C 207.64,213.527 210.64,211.36 213.5,209C 216.861,208.946 219.861,207.946 222.5,206C 226.813,202.139 227.48,197.806 224.5,193C 217.582,193.466 211.249,191.799 205.5,188C 196.891,185.447 192.891,188.614 193.5,197.5C 188.752,198.521 184.085,199.854 179.5,201.5C 177.334,199.507 175.001,197.673 172.5,196C 170.402,195.322 168.402,195.489 166.5,196.5C 163.293,195.468 160.793,193.468 159,190.5C 156.622,178.943 154.122,167.443 151.5,156C 151.667,153.833 151.833,151.667 152,149.5C 154.442,146.952 156.108,143.952 157,140.5C 162.961,137.05 166.795,132.05 168.5,125.5C 168.833,124.833 169.167,124.167 169.5,123.5C 175.274,119.438 181.274,115.605 187.5,112C 190.063,110.921 192.729,110.421 195.5,110.5C 200.47,109.505 205.47,109.005 210.5,109C 211.931,109.465 213.097,110.299 214,111.5C 214.05,113.744 214.883,115.411 216.5,116.5 Z"/></g>
<g><path style="opacity:0.824" fill="#2a0b4a" d="M 336.5,230.5 C 335.167,229.833 334.167,228.833 333.5,227.5C 339.258,202.011 342.591,176.177 343.5,150C 343.453,147.705 342.787,145.871 341.5,144.5C 343.248,143.211 343.581,141.711 342.5,140C 344.134,139.506 345.801,139.34 347.5,139.5C 347.5,138.5 347.5,137.5 347.5,136.5C 351.714,133.953 354.381,130.287 355.5,125.5C 351.5,126.167 347.5,126.833 343.5,127.5C 344.335,126.057 345.668,125.057 347.5,124.5C 351.107,123.511 354.774,123.177 358.5,123.5C 358.105,131.037 354.939,137.037 349,141.5C 347.416,160.842 345.749,180.176 344,199.5C 342.575,210.134 340.075,220.467 336.5,230.5 Z"/></g>
<g><path style="opacity:0.961" fill="#6f5e81" d="M 210.5,200.5 C 205.13,200.392 199.797,200.725 194.5,201.5C 197.356,199.994 200.523,199.328 204,199.5C 206.361,199.504 208.527,199.837 210.5,200.5 Z"/></g>
<g><path style="opacity:0.944" fill="#f6f6f6" d="M 113.5,229.5 C 114.609,229.443 115.609,229.11 116.5,228.5C 118.772,227.681 121.106,227.015 123.5,226.5C 125.117,225.962 126.784,225.629 128.5,225.5C 128.833,225.5 129.167,225.5 129.5,225.5C 134.511,225.334 139.511,225.501 144.5,226C 147.667,227.833 150.167,230.333 152,233.5C 152.147,230.429 152.98,227.596 154.5,225C 159.823,224.501 165.156,224.334 170.5,224.5C 168.246,234.105 166.246,243.772 164.5,253.5C 164.414,254.496 164.748,255.329 165.5,256C 171.706,257.24 174.706,254.74 174.5,248.5C 176.949,241.043 178.949,233.376 180.5,225.5C 182.833,225.5 185.167,225.5 187.5,225.5C 187.5,225.833 187.5,226.167 187.5,226.5C 185.833,226.5 184.167,226.5 182.5,226.5C 180.338,235.814 178.172,245.148 176,254.5C 172.02,260.07 167.52,260.737 162.5,256.5C 163.327,246.355 164.994,236.355 167.5,226.5C 163.5,226.5 159.5,226.5 155.5,226.5C 153.834,233.833 152.167,241.166 150.5,248.5C 149.962,250.117 149.629,251.784 149.5,253.5C 148.343,256.026 148.343,258.693 149.5,261.5C 149.737,262.791 149.404,263.791 148.5,264.5C 147.778,264.082 147.278,263.416 147,262.5C 146.471,265.947 145.638,269.281 144.5,272.5C 136.435,272.218 128.435,272.218 120.5,272.5C 112.837,272.659 107.337,269.326 104,262.5C 101.102,266.689 97.2688,269.523 92.5,271C 76.5431,272.404 60.5431,272.904 44.5,272.5C 45.5459,264.436 47.0459,256.436 49,248.5C 53.0411,233.292 57.2078,218.125 61.5,203C 75.8701,202.131 90.2034,202.464 104.5,204C 110.302,207.267 112.968,212.267 112.5,219C 112.282,225.322 110.282,230.988 106.5,236C 108.372,238.293 109.872,240.793 111,243.5C 113.628,242.543 115.128,240.709 115.5,238C 114.014,235.411 113.347,232.577 113.5,229.5 Z M 74.5,221.5 C 79.8437,221.334 85.1771,221.501 90.5,222C 94.1271,223.221 94.1271,224.888 90.5,227C 84.8896,228.686 79.2229,228.853 73.5,227.5C 74.3482,225.591 74.6816,223.591 74.5,221.5 Z M 68.5,247.5 C 75.8409,247.334 83.1742,247.5 90.5,248C 91.2934,250.612 90.46,252.778 88,254.5C 80.9674,256.696 73.8008,257.029 66.5,255.5C 67.7853,252.979 68.4519,250.313 68.5,247.5 Z M 122.5,254.5 C 123.5,254.833 124.167,255.5 124.5,256.5C 123.325,256.719 122.325,256.386 121.5,255.5C 121.624,254.893 121.957,254.56 122.5,254.5 Z"/></g>
<g><path style="opacity:0.976" fill="#bdb3c7" d="M 210.5,200.5 C 211.833,201.833 211.833,203.167 210.5,204.5C 204.019,208.576 197.353,212.41 190.5,216C 187.436,218.207 185.436,221.041 184.5,224.5C 183.167,224.5 181.833,224.5 180.5,224.5C 181.368,218.764 183.868,213.764 188,209.5C 188.667,208.833 188.667,208.167 188,207.5C 180.631,208.467 173.464,210.301 166.5,213C 157.181,213.212 148.514,215.546 140.5,220C 139.167,221.333 139.167,222.667 140.5,224C 138.19,224.497 135.857,224.663 133.5,224.5C 133.104,221.518 133.771,218.851 135.5,216.5C 140.393,215.439 144.727,213.439 148.5,210.5C 150.5,210.5 152.5,210.5 154.5,210.5C 160.63,210.635 166.63,209.801 172.5,208C 179.788,205.513 187.121,203.347 194.5,201.5C 199.797,200.725 205.13,200.392 210.5,200.5 Z"/></g>
<g><path style="opacity:0.939" fill="#f7f6f7" d="M 307.5,271.5 C 306.5,271.5 305.5,271.5 304.5,271.5C 302.717,277.044 301.05,282.71 299.5,288.5C 297.901,288.768 296.568,288.434 295.5,287.5C 297.048,287.179 297.715,286.179 297.5,284.5C 298.384,281.977 299.218,279.31 300,276.5C 298.343,263.297 301.176,251.297 308.5,240.5C 312.112,238.028 316.112,236.695 320.5,236.5C 322.261,237.313 323.928,238.313 325.5,239.5C 326.582,244.392 329.248,245.559 333.5,243C 335.448,241.561 336.781,239.728 337.5,237.5C 336.638,235.49 336.138,233.49 336,231.5C 337.554,233.927 338.721,233.927 339.5,231.5C 339.33,226.574 341.663,224.241 346.5,224.5C 347.167,224.5 347.833,224.5 348.5,224.5C 355.414,223.932 362.247,223.932 369,224.5C 371.405,223.726 373.905,223.226 376.5,223C 374.221,222.594 372.887,221.261 372.5,219C 373.96,211.443 378.293,208.777 385.5,211C 387.646,214.97 386.979,218.637 383.5,222C 382.5,222.333 381.5,222.667 380.5,223C 382.433,223.251 384.266,223.751 386,224.5C 386.078,226.657 386.245,228.657 386.5,230.5C 395.134,223.741 404.8,221.907 415.5,225C 420.231,227.956 423.398,232.123 425,237.5C 425.688,243.282 425.188,248.949 423.5,254.5C 433.45,253.71 436.617,258.044 433,267.5C 425.811,274.714 419.644,274.047 414.5,265.5C 404.704,273.078 394.038,274.411 382.5,269.5C 380.597,268.053 378.93,266.386 377.5,264.5C 376.808,267.145 375.808,269.645 374.5,272C 368.843,272.499 363.176,272.666 357.5,272.5C 359.316,262.551 361.649,252.718 364.5,243C 360.578,239.625 357.078,240.125 354,244.5C 351.561,253.457 349.228,262.457 347,271.5C 341.259,272.475 335.425,272.808 329.5,272.5C 329.662,270.473 329.495,268.473 329,266.5C 322.496,271.22 315.329,272.887 307.5,271.5 Z M 402.5,239.5 C 407.369,240.562 409.202,243.562 408,248.5C 404.566,255.068 399.566,257.068 393,254.5C 391.421,249.446 392.921,245.279 397.5,242C 399.315,241.243 400.981,240.41 402.5,239.5 Z M 323.5,249.5 C 320.278,254.397 315.945,256.23 310.5,255C 309.748,254.329 309.414,253.496 309.5,252.5C 313.003,246.93 317.67,245.93 323.5,249.5 Z"/></g>
<g><path style="opacity:0.682" fill="#695381" d="M 318.5,155.5 C 320.119,156.072 321.785,156.405 323.5,156.5C 316.182,179.479 316.849,202.146 325.5,224.5C 316.448,224.193 307.448,224.693 298.5,226C 297.217,230.278 295.884,234.444 294.5,238.5C 294.699,235.059 294.199,231.726 293,228.5C 292.667,228.833 292.333,229.167 292,229.5C 291.333,234.167 291.333,238.833 292,243.5C 292.278,244.416 292.778,245.082 293.5,245.5C 292.273,249.125 291.106,252.792 290,256.5C 287.733,244.231 285.9,231.897 284.5,219.5C 284.204,210.544 285.204,201.878 287.5,193.5C 287.142,197.599 287.142,201.599 287.5,205.5C 289.046,199.366 290.879,193.366 293,187.5C 293.383,186.944 293.883,186.611 294.5,186.5C 294.161,195.226 294.661,203.893 296,212.5C 297.198,215.726 299.031,218.559 301.5,221C 303.5,221.667 305.5,221.667 307.5,221C 309.189,218.443 310.356,215.609 311,212.5C 311.333,199.833 311.667,187.167 312,174.5C 313.941,167.65 316.108,161.317 318.5,155.5 Z"/></g>
<g><path style="opacity:0.941" fill="#9a8aa9" d="M 148.5,210.5 C 144.727,213.439 140.393,215.439 135.5,216.5C 133.771,218.851 133.104,221.518 133.5,224.5C 131.901,224.232 130.568,224.566 129.5,225.5C 129.167,225.5 128.833,225.5 128.5,225.5C 130.509,214.509 137.176,209.509 148.5,210.5 Z"/></g>
<g><path style="opacity:0.884" fill="#725e88" d="M 210.5,204.5 C 209.386,205.885 208.386,207.385 207.5,209C 199.148,211.866 192.815,217.033 188.5,224.5C 187.167,224.5 185.833,224.5 184.5,224.5C 185.436,221.041 187.436,218.207 190.5,216C 197.353,212.41 204.019,208.576 210.5,204.5 Z"/></g>
<g><path style="opacity:0.988" fill="#cac2d2" d="M 184.5,224.5 C 185.833,224.5 187.167,224.5 188.5,224.5C 193.5,224.5 198.5,224.5 203.5,224.5C 198.36,225.488 193.026,225.821 187.5,225.5C 185.167,225.5 182.833,225.5 180.5,225.5C 178.949,233.376 176.949,241.043 174.5,248.5C 174.5,245.833 174.5,243.167 174.5,240.5C 173.022,240.238 171.689,240.571 170.5,241.5C 169.538,244.941 168.372,248.274 167,251.5C 166.292,252.381 165.458,253.047 164.5,253.5C 166.246,243.772 168.246,234.105 170.5,224.5C 165.156,224.334 159.823,224.501 154.5,225C 152.98,227.596 152.147,230.429 152,233.5C 150.167,230.333 147.667,227.833 144.5,226C 139.511,225.501 134.511,225.334 129.5,225.5C 130.568,224.566 131.901,224.232 133.5,224.5C 135.857,224.663 138.19,224.497 140.5,224C 139.167,222.667 139.167,221.333 140.5,220C 148.514,215.546 157.181,213.212 166.5,213C 173.464,210.301 180.631,208.467 188,207.5C 188.667,208.167 188.667,208.833 188,209.5C 183.868,213.764 181.368,218.764 180.5,224.5C 181.833,224.5 183.167,224.5 184.5,224.5 Z"/></g>
<g><path style="opacity:1" fill="#e4e1e7" d="M 203.5,224.5 C 203.833,224.5 204.167,224.5 204.5,224.5C 206.5,224.5 208.5,224.5 210.5,224.5C 209.306,232.275 207.639,239.942 205.5,247.5C 204.343,250.307 204.343,252.974 205.5,255.5C 206.568,256.434 207.901,256.768 209.5,256.5C 208.5,257.167 207.5,257.833 206.5,258.5C 205.833,258.5 205.167,258.5 204.5,258.5C 202.279,255.057 201.946,251.39 203.5,247.5C 205.624,240.589 205.958,233.589 204.5,226.5C 201.941,226.198 199.607,226.532 197.5,227.5C 194.525,237.606 191.859,247.939 189.5,258.5C 190.723,266.454 195.39,270.121 203.5,269.5C 205.833,270.167 208.167,270.833 210.5,271.5C 209.167,271.5 207.833,271.5 206.5,271.5C 206.167,271.5 205.833,271.5 205.5,271.5C 203.5,271.5 201.5,271.5 199.5,271.5C 195.937,271.317 192.937,269.983 190.5,267.5C 190.083,265.355 189.083,264.688 187.5,265.5C 185.739,273.379 181.739,279.713 175.5,284.5C 174.833,284.833 174.167,285.167 173.5,285.5C 170.711,286.648 168.044,287.981 165.5,289.5C 163.585,289.216 161.919,289.549 160.5,290.5C 157.455,290.492 154.455,290.159 151.5,289.5C 151.158,288.662 150.492,288.328 149.5,288.5C 144.765,286.628 142.265,283.294 142,278.5C 143.376,277.295 144.542,275.962 145.5,274.5C 147.698,272.902 150.031,271.569 152.5,270.5C 150.748,268.754 149.415,266.754 148.5,264.5C 149.404,263.791 149.737,262.791 149.5,261.5C 150.827,264.827 153.16,267.16 156.5,268.5C 161.632,270.038 166.632,269.371 171.5,266.5C 171.371,274.607 167.038,278.273 158.5,277.5C 157.957,277.56 157.624,277.893 157.5,278.5C 158.482,281.096 159.149,283.762 159.5,286.5C 160.833,286.5 162.167,286.5 163.5,286.5C 167.852,286.154 171.519,284.488 174.5,281.5C 178.851,278.48 182.017,274.48 184,269.5C 187.062,255.48 190.229,241.48 193.5,227.5C 191.735,226.539 189.735,226.205 187.5,226.5C 187.5,226.167 187.5,225.833 187.5,225.5C 193.026,225.821 198.36,225.488 203.5,224.5 Z"/></g>
<g><path style="opacity:1" fill="#cbc3d3" d="M 162.5,256.5 C 160.436,256.313 158.436,255.813 156.5,255C 154.583,252.591 152.583,250.424 150.5,248.5C 152.167,241.166 153.834,233.833 155.5,226.5C 159.5,226.5 163.5,226.5 167.5,226.5C 164.994,236.355 163.327,246.355 162.5,256.5 Z"/></g>
<g><path style="opacity:1" fill="#d3ccda" d="M 206.5,268.5 C 206.5,267.833 206.5,267.167 206.5,266.5C 206.5,263.833 206.5,261.167 206.5,258.5C 210.426,258.953 213.592,257.62 216,254.5C 218.177,245.457 220.511,236.457 223,227.5C 226.73,226.54 230.563,226.207 234.5,226.5C 232.084,240.832 228.417,254.832 223.5,268.5C 217.713,269.062 212.046,269.062 206.5,268.5 Z"/></g>
<g><path style="opacity:1" fill="#b7adc3" d="M 129.5,227.5 C 134.862,226.068 140.195,226.568 145.5,229C 147.049,230.214 148.215,231.714 149,233.5C 149.81,237.358 149.643,241.024 148.5,244.5C 148.45,239.936 146.45,236.436 142.5,234C 138.071,231.786 133.738,229.619 129.5,227.5 Z"/></g>
<g><path style="opacity:1" fill="#9687a6" d="M 327.5,227.5 C 325.92,229.717 324.92,232.384 324.5,235.5C 321.453,229.861 316.786,228.027 310.5,230C 308.027,232.473 305.527,234.973 303,237.5C 300.39,241.742 297.557,245.742 294.5,249.5C 296.578,242.266 298.244,234.932 299.5,227.5C 309.094,228.784 318.427,228.784 327.5,227.5 Z"/></g>
<g><path style="opacity:1" fill="#5a4571" d="M 327.5,227.5 C 335.86,230.068 336.526,233.901 329.5,239C 328.207,239.49 326.873,239.657 325.5,239.5C 323.928,238.313 322.261,237.313 320.5,236.5C 318.913,232.944 316.246,231.778 312.5,233C 306.146,238.887 301.146,245.72 297.5,253.5C 296.716,264.345 296.049,275.345 295.5,286.5C 294.5,286.5 293.5,286.5 292.5,286.5C 292.485,276.153 292.818,265.819 293.5,255.5C 293.833,253.5 294.167,251.5 294.5,249.5C 297.557,245.742 300.39,241.742 303,237.5C 305.527,234.973 308.027,232.473 310.5,230C 316.786,228.027 321.453,229.861 324.5,235.5C 324.92,232.384 325.92,229.717 327.5,227.5 Z"/></g>
<g><path style="opacity:1" fill="#8c7c9e" d="M 129.5,227.5 C 133.738,229.619 138.071,231.786 142.5,234C 146.45,236.436 148.45,239.936 148.5,244.5C 148.59,247.152 147.924,249.485 146.5,251.5C 145.721,248.366 144.055,245.699 141.5,243.5C 141.167,243.833 140.833,244.167 140.5,244.5C 142.72,246.551 143.386,248.884 142.5,251.5C 137.195,249.371 133.528,245.704 131.5,240.5C 133.315,241.63 135.315,242.296 137.5,242.5C 137.703,240.61 137.037,239.11 135.5,238C 131.848,237.501 128.182,237.335 124.5,237.5C 123.679,234.446 123.679,231.446 124.5,228.5C 126.071,227.691 127.738,227.357 129.5,227.5 Z"/></g>
<g><path style="opacity:1" fill="#3b2453" d="M 197.5,227.5 C 199.607,226.532 201.941,226.198 204.5,226.5C 205.958,233.589 205.624,240.589 203.5,247.5C 201.369,241.146 200.369,234.479 200.5,227.5C 199.5,227.5 198.5,227.5 197.5,227.5 Z"/></g>
<g><path style="opacity:0.094" fill="#1e0246" d="M 324.5,247.5 C 320.561,247.161 317.561,246.161 315.5,244.5C 314.5,244.667 313.5,244.833 312.5,245C 313.151,246.308 312.485,247.141 310.5,247.5C 311.508,242.994 314.342,240.327 319,239.5C 323.544,240.244 325.377,242.91 324.5,247.5 Z"/></g>
<g><path style="opacity:0.006" fill="#000000" d="M 324.5,247.5 C 324.167,248.167 323.833,248.833 323.5,249.5C 317.67,245.93 313.003,246.93 309.5,252.5C 309.629,250.784 309.962,249.117 310.5,247.5C 312.485,247.141 313.151,246.308 312.5,245C 313.5,244.833 314.5,244.667 315.5,244.5C 317.561,246.161 320.561,247.161 324.5,247.5 Z"/></g>
<g><path style="opacity:0.845" fill="#65517b" d="M 174.5,248.5 C 174.706,254.74 171.706,257.24 165.5,256C 164.748,255.329 164.414,254.496 164.5,253.5C 165.458,253.047 166.292,252.381 167,251.5C 168.372,248.274 169.538,244.941 170.5,241.5C 171.689,240.571 173.022,240.238 174.5,240.5C 174.5,243.167 174.5,245.833 174.5,248.5 Z"/></g>
<g><path style="opacity:1" fill="#5a2f71" d="M 197.5,227.5 C 198.5,227.5 199.5,227.5 200.5,227.5C 200.369,234.479 201.369,241.146 203.5,247.5C 201.946,251.39 202.279,255.057 204.5,258.5C 203.756,261.36 203.089,264.36 202.5,267.5C 203,267.833 203.5,268.167 204,268.5C 205.011,267.944 205.844,267.278 206.5,266.5C 206.5,267.167 206.5,267.833 206.5,268.5C 205.791,269.404 204.791,269.737 203.5,269.5C 195.39,270.121 190.723,266.454 189.5,258.5C 191.859,247.939 194.525,237.606 197.5,227.5 Z"/></g>
<g><path style="opacity:1" fill="#604c76" d="M 131.5,240.5 C 133.528,245.704 137.195,249.371 142.5,251.5C 143.386,248.884 142.72,246.551 140.5,244.5C 140.833,244.167 141.167,243.833 141.5,243.5C 144.055,245.699 145.721,248.366 146.5,251.5C 146.5,252.833 146.5,254.167 146.5,255.5C 142.122,255.311 138.122,253.978 134.5,251.5C 131.507,248.499 128.841,245.165 126.5,241.5C 128.045,240.548 129.712,240.215 131.5,240.5 Z"/></g>
<g><path style="opacity:0.98" fill="#3b2851" d="M 205.5,247.5 C 206.833,250.167 206.833,252.833 205.5,255.5C 204.343,252.974 204.343,250.307 205.5,247.5 Z"/></g>
<g><path style="opacity:0.007" fill="#000000" d="M 125.5,252.5 C 125.771,254.43 126.771,255.764 128.5,256.5C 127.167,256.5 125.833,256.5 124.5,256.5C 124.167,255.5 123.5,254.833 122.5,254.5C 122.973,253.094 123.973,252.427 125.5,252.5 Z"/></g>
<g><path style="opacity:0.035" fill="#280f47" d="M 128.5,256.5 C 126.771,255.764 125.771,254.43 125.5,252.5C 127.856,251.425 130.189,251.425 132.5,252.5C 131.811,254.522 130.478,255.856 128.5,256.5 Z"/></g>
<g><path style="opacity:0.999" fill="#eceaee" d="M 277.5,203.5 C 278.833,203.5 280.167,203.5 281.5,203.5C 282.65,208.934 283.65,214.267 284.5,219.5C 285.9,231.897 287.733,244.231 290,256.5C 291.106,252.792 292.273,249.125 293.5,245.5C 294.219,243.236 294.552,240.903 294.5,238.5C 295.884,234.444 297.217,230.278 298.5,226C 307.448,224.693 316.448,224.193 325.5,224.5C 327.936,225.871 330.603,226.871 333.5,227.5C 334.167,228.833 335.167,229.833 336.5,230.5C 337.391,231.11 338.391,231.443 339.5,231.5C 338.721,233.927 337.554,233.927 336,231.5C 336.138,233.49 336.638,235.49 337.5,237.5C 336.781,239.728 335.448,241.561 333.5,243C 329.248,245.559 326.582,244.392 325.5,239.5C 326.873,239.657 328.207,239.49 329.5,239C 336.526,233.901 335.86,230.068 327.5,227.5C 318.427,228.784 309.094,228.784 299.5,227.5C 298.244,234.932 296.578,242.266 294.5,249.5C 294.167,251.5 293.833,253.5 293.5,255.5C 290.942,260.539 290.276,265.873 291.5,271.5C 289.589,271.574 288.422,272.574 288,274.5C 286.847,278.787 286.013,283.121 285.5,287.5C 287.5,287.5 289.5,287.5 291.5,287.5C 292.833,287.5 294.167,287.5 295.5,287.5C 296.568,288.434 297.901,288.768 299.5,288.5C 299.5,288.833 299.5,289.167 299.5,289.5C 296.5,289.5 293.5,289.5 290.5,289.5C 289.167,289.5 287.833,289.5 286.5,289.5C 285.167,289.5 283.833,289.5 282.5,289.5C 283.42,283.739 284.753,278.072 286.5,272.5C 282.204,271.672 277.871,271.172 273.5,271C 272.549,267.943 272.216,264.777 272.5,261.5C 263.827,261.334 255.16,261.5 246.5,262C 244.892,265.272 242.892,268.272 240.5,271C 230.506,271.5 220.506,271.666 210.5,271.5C 208.167,270.833 205.833,270.167 203.5,269.5C 204.791,269.737 205.791,269.404 206.5,268.5C 212.046,269.062 217.713,269.062 223.5,268.5C 228.417,254.832 232.084,240.832 234.5,226.5C 230.563,226.207 226.73,226.54 223,227.5C 220.511,236.457 218.177,245.457 216,254.5C 213.592,257.62 210.426,258.953 206.5,258.5C 207.5,257.833 208.5,257.167 209.5,256.5C 211.229,255.883 212.729,254.883 214,253.5C 216.208,244.126 218.541,234.793 221,225.5C 226.407,224.527 231.907,224.193 237.5,224.5C 235.001,235.153 232.834,245.819 231,256.5C 242.376,238.914 253.876,221.414 265.5,204C 269.486,203.501 273.486,203.334 277.5,203.5 Z"/></g>
<g><path style="opacity:0.835" fill="#3b2455" d="M 294.5,238.5 C 294.552,240.903 294.219,243.236 293.5,245.5C 292.778,245.082 292.278,244.416 292,243.5C 291.333,238.833 291.333,234.167 292,229.5C 292.333,229.167 292.667,228.833 293,228.5C 294.199,231.726 294.699,235.059 294.5,238.5 Z"/></g>
<g><path style="opacity:1" fill="#b1a6bd" d="M 281.5,218.5 C 283.823,232.107 285.823,245.774 287.5,259.5C 287.66,261.199 287.494,262.866 287,264.5C 284.843,256.871 282.843,249.205 281,241.5C 280.178,233.655 280.344,225.989 281.5,218.5 Z"/></g>
<g><path style="opacity:1" fill="#d2cbd9" d="M 281.5,218.5 C 280.344,225.989 280.178,233.655 281,241.5C 282.843,249.205 284.843,256.871 287,264.5C 287.494,262.866 287.66,261.199 287.5,259.5C 288.444,262.668 288.444,266.001 287.5,269.5C 283.486,269.666 279.486,269.499 275.5,269C 274.833,266 274.167,263 273.5,260C 264.167,259.333 254.833,259.333 245.5,260C 243.5,263 241.5,266 239.5,269C 235.514,269.499 231.514,269.666 227.5,269.5C 227.34,267.801 227.506,266.134 228,264.5C 241.164,245.509 253.831,226.175 266,206.5C 270.401,205.533 274.901,205.2 279.5,205.5C 280.425,209.79 281.091,214.124 281.5,218.5 Z"/></g>
<g><path style="opacity:1" fill="#f3f2f4" d="M 267.5,225.5 C 268.75,225.577 269.583,226.244 270,227.5C 270.641,233.87 271.475,240.203 272.5,246.5C 266.833,246.5 261.167,246.5 255.5,246.5C 255.351,245.448 255.517,244.448 256,243.5C 260.057,237.616 263.89,231.616 267.5,225.5 Z"/></g>
<g><path style="opacity:1" fill="#d5cfdc" d="M 266.5,230.5 C 267.693,230.97 268.36,231.97 268.5,233.5C 269.246,237.132 269.579,240.798 269.5,244.5C 265.774,244.823 262.107,244.489 258.5,243.5C 261.44,239.278 264.106,234.945 266.5,230.5 Z"/></g>
<g><path style="opacity:1" fill="#3a2051" d="M 193.5,227.5 C 190.229,241.48 187.062,255.48 184,269.5C 182.017,274.48 178.851,278.48 174.5,281.5C 180.07,263.884 184.07,245.884 186.5,227.5C 188.833,227.5 191.167,227.5 193.5,227.5 Z"/></g>
<g><path style="opacity:1" fill="#d6d1dc" d="M 134.5,251.5 C 138.122,253.978 142.122,255.311 146.5,255.5C 145.968,257.63 145.135,259.63 144,261.5C 140.728,259.892 137.728,257.892 135,255.5C 134.51,254.207 134.343,252.873 134.5,251.5 Z"/></g>
<g><path style="opacity:1" fill="#8c7c9e" d="M 187.5,226.5 C 189.735,226.205 191.735,226.539 193.5,227.5C 191.167,227.5 188.833,227.5 186.5,227.5C 184.07,245.884 180.07,263.884 174.5,281.5C 171.519,284.488 167.852,286.154 163.5,286.5C 162.94,284.199 162.44,281.866 162,279.5C 160.698,278.915 159.531,278.249 158.5,277.5C 167.038,278.273 171.371,274.607 171.5,266.5C 166.632,269.371 161.632,270.038 156.5,268.5C 157.043,268.44 157.376,268.107 157.5,267.5C 155.312,262.445 152.645,257.778 149.5,253.5C 149.629,251.784 149.962,250.117 150.5,248.5C 152.583,250.424 154.583,252.591 156.5,255C 158.436,255.813 160.436,256.313 162.5,256.5C 167.52,260.737 172.02,260.07 176,254.5C 178.172,245.148 180.338,235.814 182.5,226.5C 184.167,226.5 185.833,226.5 187.5,226.5 Z"/></g>
<g><path style="opacity:1" fill="#2c1543" d="M 204.5,258.5 C 205.167,258.5 205.833,258.5 206.5,258.5C 206.5,261.167 206.5,263.833 206.5,266.5C 205.844,267.278 205.011,267.944 204,268.5C 203.5,268.167 203,267.833 202.5,267.5C 203.089,264.36 203.756,261.36 204.5,258.5 Z"/></g>
<g><path style="opacity:1" fill="#65517a" d="M 149.5,253.5 C 152.645,257.778 155.312,262.445 157.5,267.5C 157.376,268.107 157.043,268.44 156.5,268.5C 153.16,267.16 150.827,264.827 149.5,261.5C 148.343,258.693 148.343,256.026 149.5,253.5 Z"/></g>
<g><path style="opacity:1" fill="#cdc6d4" d="M 320.5,236.5 C 316.112,236.695 312.112,238.028 308.5,240.5C 301.176,251.297 298.343,263.297 300,276.5C 299.218,279.31 298.384,281.977 297.5,284.5C 297.5,274.167 297.5,263.833 297.5,253.5C 301.146,245.72 306.146,238.887 312.5,233C 316.246,231.778 318.913,232.944 320.5,236.5 Z"/></g>
<g><path style="opacity:0.031" fill="#240d41" d="M 148.5,264.5 C 149.415,266.754 150.748,268.754 152.5,270.5C 150.031,271.569 147.698,272.902 145.5,274.5C 145.167,273.833 144.833,273.167 144.5,272.5C 145.638,269.281 146.471,265.947 147,262.5C 147.278,263.416 147.778,264.082 148.5,264.5 Z"/></g>
<g><path style="opacity:0.968" fill="#55276e" d="M 190.5,267.5 C 192.937,269.983 195.937,271.317 199.5,271.5C 199.5,272.167 199.833,272.5 200.5,272.5C 197.61,283.286 191.944,292.286 183.5,299.5C 183.605,294.672 185.105,290.005 188,285.5C 188.206,282.377 188.873,279.377 190,276.5C 190.498,273.518 190.665,270.518 190.5,267.5 Z"/></g>
<g><path style="opacity:0.006" fill="#000000" d="M 304.5,271.5 C 305.5,271.5 306.5,271.5 307.5,271.5C 305.346,298.742 300.68,325.408 293.5,351.5C 293.018,350.584 292.685,349.584 292.5,348.5C 299.908,322.94 303.908,297.274 304.5,271.5 Z"/></g>
<g><path style="opacity:0.671" fill="#7a668f" d="M 160.5,275.5 C 160.567,274.041 160.234,272.708 159.5,271.5C 162.627,271.124 165.627,271.124 168.5,271.5C 166.657,274.422 163.99,275.755 160.5,275.5 Z"/></g>
<g><path style="opacity:0.998" fill="#d2cbd9" d="M 286.5,289.5 C 286.5,290.167 286.167,290.5 285.5,290.5C 284.5,290.5 283.5,290.5 282.5,290.5C 282.66,292.199 282.494,293.866 282,295.5C 281.667,295.167 281.333,294.833 281,294.5C 279.884,291.149 278.884,287.816 278,284.5C 276.273,281.107 273.606,278.774 270,277.5C 267.361,279.473 265.027,281.806 263,284.5C 259.692,295.619 257.359,306.952 256,318.5C 255.751,321.177 254.751,323.51 253,325.5C 253.06,321.876 253.893,318.376 255.5,315C 255.5,309.578 255,304.078 254,298.5C 252.561,296.725 251.561,294.725 251,292.5C 245.25,288.974 240.583,290.64 237,297.5C 236.764,299.764 236.264,301.931 235.5,304C 236.601,307.941 236.601,311.608 235.5,315C 236.574,319.059 238.574,322.893 241.5,326.5C 240.373,330.731 238.039,331.564 234.5,329C 233.137,327.055 232.303,324.888 232,322.5C 231.059,324.772 229.726,326.772 228,328.5C 225.532,320.599 222.699,312.099 219.5,303C 219.532,293.478 218.032,283.978 215,274.5C 213.69,273.103 212.19,272.103 210.5,271.5C 220.506,271.666 230.506,271.5 240.5,271C 242.892,268.272 244.892,265.272 246.5,262C 255.16,261.5 263.827,261.334 272.5,261.5C 272.216,264.777 272.549,267.943 273.5,271C 277.871,271.172 282.204,271.672 286.5,272.5C 284.753,278.072 283.42,283.739 282.5,289.5C 283.833,289.5 285.167,289.5 286.5,289.5 Z"/></g>
<g><path style="opacity:0.735" fill="#361c53" d="M 152.5,270.5 C 154.806,270.993 157.139,271.326 159.5,271.5C 160.234,272.708 160.567,274.041 160.5,275.5C 156.859,275.348 154.193,273.682 152.5,270.5 Z"/></g>
<g><path style="opacity:1" fill="#c0b8c9" d="M 291.5,271.5 C 291.5,276.833 291.5,282.167 291.5,287.5C 289.5,287.5 287.5,287.5 285.5,287.5C 286.013,283.121 286.847,278.787 288,274.5C 288.422,272.574 289.589,271.574 291.5,271.5 Z"/></g>
<g><path style="opacity:1" fill="#635179" d="M 158.5,277.5 C 159.531,278.249 160.698,278.915 162,279.5C 162.44,281.866 162.94,284.199 163.5,286.5C 162.167,286.5 160.833,286.5 159.5,286.5C 159.149,283.762 158.482,281.096 157.5,278.5C 157.624,277.893 157.957,277.56 158.5,277.5 Z"/></g>
<g><path style="opacity:0.975" fill="#3f1c53" d="M 190.5,267.5 C 190.665,270.518 190.498,273.518 190,276.5C 188.873,279.377 188.206,282.377 188,285.5C 185.105,290.005 183.605,294.672 183.5,299.5C 181.497,301.982 178.831,302.982 175.5,302.5C 175.958,296.312 175.958,290.312 175.5,284.5C 181.739,279.713 185.739,273.379 187.5,265.5C 189.083,264.688 190.083,265.355 190.5,267.5 Z"/></g>
<g><path style="opacity:1" fill="#9282a1" d="M 297.5,253.5 C 297.5,263.833 297.5,274.167 297.5,284.5C 297.715,286.179 297.048,287.179 295.5,287.5C 294.167,287.5 292.833,287.5 291.5,287.5C 291.5,282.167 291.5,276.833 291.5,271.5C 290.276,265.873 290.942,260.539 293.5,255.5C 292.818,265.819 292.485,276.153 292.5,286.5C 293.5,286.5 294.5,286.5 295.5,286.5C 296.049,275.345 296.716,264.345 297.5,253.5 Z"/></g>
<g><path style="opacity:0.006" fill="#000000" d="M 149.5,288.5 C 150.492,288.328 151.158,288.662 151.5,289.5C 153.635,293.571 154.968,297.905 155.5,302.5C 152.606,298.319 150.606,293.652 149.5,288.5 Z"/></g>
<g><path style="opacity:0.73" fill="#6a5482" d="M 173.5,285.5 C 171.921,290.325 171.088,295.325 171,300.5C 167.932,297.471 166.099,293.805 165.5,289.5C 168.044,287.981 170.711,286.648 173.5,285.5 Z"/></g>
<g><path style="opacity:0.006" fill="#000000" d="M 190.5,320.5 C 190.808,318.076 190.474,315.743 189.5,313.5C 176.396,318.119 165.229,315.452 156,305.5C 155.517,304.552 155.351,303.552 155.5,302.5C 156.117,302.389 156.617,302.056 157,301.5C 160.55,308.8 166.05,312.966 173.5,314C 175.809,314.006 177.975,314.172 180,314.5C 181.834,312.557 183.834,312.224 186,313.5C 187.401,311.808 189.234,311.141 191.5,311.5C 191.261,313.467 191.594,315.301 192.5,317C 191.915,318.302 191.249,319.469 190.5,320.5 Z"/></g>
<g><path style="opacity:0.766" fill="#2a0e47" d="M 200.5,272.5 C 201.833,272.5 203.167,272.5 204.5,272.5C 203.913,276.159 202.913,279.659 201.5,283C 203.103,293.113 204.103,303.28 204.5,313.5C 203.63,326.495 203.463,339.495 204,352.5C 204.893,353.711 205.726,353.711 206.5,352.5C 209.88,346.284 211.88,339.617 212.5,332.5C 213.833,332.5 215.167,332.5 216.5,332.5C 219.04,352.322 222.374,371.989 226.5,391.5C 225.518,390.859 224.518,390.193 223.5,389.5C 221.294,379.932 219.628,370.266 218.5,360.5C 217.075,355.845 215.742,351.178 214.5,346.5C 213.998,345.479 213.332,345.312 212.5,346C 210.516,348.134 209.182,350.634 208.5,353.5C 205.213,354.942 202.38,354.275 200,351.5C 199.933,340.175 200.1,328.842 200.5,317.5C 200.716,308.401 200.049,299.401 198.5,290.5C 197.998,289.479 197.332,289.312 196.5,290C 192.161,297.841 185.828,303.341 177.5,306.5C 169.383,305.218 164.883,300.551 164,292.5C 163.184,291.177 162.017,290.511 160.5,290.5C 161.919,289.549 163.585,289.216 165.5,289.5C 166.099,293.805 167.932,297.471 171,300.5C 171.088,295.325 171.921,290.325 173.5,285.5C 174.167,285.167 174.833,284.833 175.5,284.5C 175.958,290.312 175.958,296.312 175.5,302.5C 178.831,302.982 181.497,301.982 183.5,299.5C 191.944,292.286 197.61,283.286 200.5,272.5 Z"/></g>
<g><path style="opacity:0.007" fill="#000000" d="M 190.5,321.5 C 191.376,321.369 192.043,321.702 192.5,322.5C 191.86,327.032 191.194,331.532 190.5,336C 191.81,341.166 191.81,346.333 190.5,351.5C 189.313,349.26 188.646,346.76 188.5,344C 189.294,336.506 189.961,329.006 190.5,321.5 Z"/></g>
<g><path style="opacity:0.99" fill="#c6becf" d="M 206.5,271.5 C 207.833,271.5 209.167,271.5 210.5,271.5C 212.19,272.103 213.69,273.103 215,274.5C 218.032,283.978 219.532,293.478 219.5,303C 222.699,312.099 225.532,320.599 228,328.5C 229.726,326.772 231.059,324.772 232,322.5C 232.303,324.888 233.137,327.055 234.5,329C 238.039,331.564 240.373,330.731 241.5,326.5C 238.574,322.893 236.574,319.059 235.5,315C 236.601,311.608 236.601,307.941 235.5,304C 236.264,301.931 236.764,299.764 237,297.5C 240.583,290.64 245.25,288.974 251,292.5C 251.561,294.725 252.561,296.725 254,298.5C 255,304.078 255.5,309.578 255.5,315C 253.893,318.376 253.06,321.876 253,325.5C 254.751,323.51 255.751,321.177 256,318.5C 257.359,306.952 259.692,295.619 263,284.5C 265.027,281.806 267.361,279.473 270,277.5C 273.606,278.774 276.273,281.107 278,284.5C 278.884,287.816 279.884,291.149 281,294.5C 281.333,294.833 281.667,295.167 282,295.5C 282.494,293.866 282.66,292.199 282.5,290.5C 283.5,290.5 284.5,290.5 285.5,290.5C 285.467,299.438 283.967,308.105 281,316.5C 278.905,310.042 277.405,303.375 276.5,296.5C 274.633,293.521 272.967,290.521 271.5,287.5C 271.762,286.022 271.429,284.689 270.5,283.5C 269.506,287.452 268.84,291.452 268.5,295.5C 265.48,298.829 263.647,302.829 263,307.5C 262.117,316.202 261.117,324.868 260,333.5C 259.632,334.91 258.799,335.91 257.5,336.5C 255.132,335.111 252.799,333.778 250.5,332.5C 249.081,331.549 247.415,331.216 245.5,331.5C 244.69,333.798 243.856,336.132 243,338.5C 242.21,347.036 242.377,355.536 243.5,364C 243.37,365.059 242.87,365.892 242,366.5C 239.962,361.802 238.129,356.969 236.5,352C 236.645,350.774 236.978,349.607 237.5,348.5C 238.274,347.289 239.107,347.289 240,348.5C 240.667,347.167 240.667,345.833 240,344.5C 239.667,344.833 239.333,345.167 239,345.5C 237.933,344.809 236.766,344.309 235.5,344C 234.901,342.378 234.234,340.878 233.5,339.5C 233.326,336.126 232.826,332.793 232,329.5C 231.829,334.533 231.329,339.533 230.5,344.5C 229.522,344.977 228.689,345.643 228,346.5C 226.758,345.128 225.258,344.128 223.5,343.5C 222.572,335.845 221.739,328.179 221,320.5C 218.683,317.056 216.683,313.389 215,309.5C 214.299,300.447 213.299,291.447 212,282.5C 210.681,278.528 208.847,274.861 206.5,271.5 Z"/></g>
<g><path style="opacity:0.96" fill="#b8aec3" d="M 271.5,287.5 C 272.967,290.521 274.633,293.521 276.5,296.5C 277.405,303.375 278.905,310.042 281,316.5C 283.967,308.105 285.467,299.438 285.5,290.5C 286.167,290.5 286.5,290.167 286.5,289.5C 287.833,289.5 289.167,289.5 290.5,289.5C 290.5,289.833 290.5,290.167 290.5,290.5C 287.561,302.603 284.728,314.937 282,327.5C 281.484,330.251 280.317,332.584 278.5,334.5C 277.029,333.619 276.196,332.286 276,330.5C 275.034,318.617 273.534,306.95 271.5,295.5C 271.5,292.833 271.5,290.167 271.5,287.5 Z"/></g>
<g><path style="opacity:0.698" fill="#6a5582" d="M 271.5,287.5 C 271.5,290.167 271.5,292.833 271.5,295.5C 273.107,313.871 274.94,332.205 277,350.5C 277.417,351.756 278.25,352.423 279.5,352.5C 279.778,354.346 279.111,355.68 277.5,356.5C 275.717,353.327 274.217,349.994 273,346.5C 271.356,336.501 270.023,326.501 269,316.5C 267.202,327.144 265.535,337.81 264,348.5C 262.807,353.767 260.307,358.267 256.5,362C 253.676,363.245 251.009,364.745 248.5,366.5C 247.595,355.845 247.428,345.179 248,334.5C 249.333,333.167 250.667,333.167 252,334.5C 253.334,339.838 254.667,345.172 256,350.5C 256.893,351.711 257.726,351.711 258.5,350.5C 262.943,332.407 266.277,314.074 268.5,295.5C 268.84,291.452 269.506,287.452 270.5,283.5C 271.429,284.689 271.762,286.022 271.5,287.5 Z"/></g>
<g><path style="opacity:0.006" fill="#000000" d="M 190.5,351.5 C 192.668,354.514 194.668,357.68 196.5,361C 200.695,362.84 204.862,364.673 209,366.5C 209.955,376.896 212.288,386.896 216,396.5C 223.572,406.698 232.072,407.698 241.5,399.5C 243.043,396.914 244.709,394.414 246.5,392C 249,391.625 251.333,390.792 253.5,389.5C 256.877,384.673 259.543,379.673 261.5,374.5C 261.93,385.372 256.93,391.706 246.5,393.5C 242.908,405.512 234.908,409.679 222.5,406C 217.185,402.851 213.685,398.351 212,392.5C 210.01,383.913 208.51,375.246 207.5,366.5C 197.076,366.737 191.409,361.737 190.5,351.5 Z"/></g>
<g><path style="opacity:0.006" fill="#000000" d="M 293.5,351.5 C 292.1,366.054 284.1,372.221 269.5,370C 267.545,370.953 265.878,372.287 264.5,374C 263.552,374.483 262.552,374.649 261.5,374.5C 263.842,371.002 267.008,368.336 271,366.5C 280.298,370.02 286.632,367.02 290,357.5C 290.333,357.833 290.667,358.167 291,358.5C 290.97,355.639 291.803,353.305 293.5,351.5 Z"/></g>
<g><path style="opacity:0.951" fill="#aca0b9" d="M 205.5,271.5 C 205.833,271.5 206.167,271.5 206.5,271.5C 208.847,274.861 210.681,278.528 212,282.5C 213.299,291.447 214.299,300.447 215,309.5C 216.683,313.389 218.683,317.056 221,320.5C 221.739,328.179 222.572,335.845 223.5,343.5C 225.258,344.128 226.758,345.128 228,346.5C 228.689,345.643 229.522,344.977 230.5,344.5C 231.329,339.533 231.829,334.533 232,329.5C 232.826,332.793 233.326,336.126 233.5,339.5C 232.838,341.304 232.505,343.304 232.5,345.5C 233.374,356.491 234.041,367.491 234.5,378.5C 233.897,382.273 233.23,385.939 232.5,389.5C 230.217,385.176 228.383,380.509 227,375.5C 222.778,354.739 218.612,334.073 214.5,313.5C 213.667,314.5 212.833,315.5 212,316.5C 212.323,301.004 210.156,286.004 205.5,271.5 Z"/></g>
<g><path style="opacity:0.737" fill="#6a5482" d="M 199.5,271.5 C 201.5,271.5 203.5,271.5 205.5,271.5C 210.156,286.004 212.323,301.004 212,316.5C 212.833,315.5 213.667,314.5 214.5,313.5C 218.612,334.073 222.778,354.739 227,375.5C 228.383,380.509 230.217,385.176 232.5,389.5C 232.567,390.959 232.234,392.292 231.5,393.5C 229.486,393.608 227.82,392.942 226.5,391.5C 222.374,371.989 219.04,352.322 216.5,332.5C 215.167,332.5 213.833,332.5 212.5,332.5C 211.88,339.617 209.88,346.284 206.5,352.5C 205.726,353.711 204.893,353.711 204,352.5C 203.463,339.495 203.63,326.495 204.5,313.5C 204.103,303.28 203.103,293.113 201.5,283C 202.913,279.659 203.913,276.159 204.5,272.5C 203.167,272.5 201.833,272.5 200.5,272.5C 199.833,272.5 199.5,272.167 199.5,271.5 Z"/></g>
<g><path style="opacity:0.219" fill="#210347" d="M 304.5,271.5 C 303.908,297.274 299.908,322.94 292.5,348.5C 292.685,349.584 293.018,350.584 293.5,351.5C 291.803,353.305 290.97,355.639 291,358.5C 290.667,358.167 290.333,357.833 290,357.5C 286.632,367.02 280.298,370.02 271,366.5C 267.008,368.336 263.842,371.002 261.5,374.5C 259.543,379.673 256.877,384.673 253.5,389.5C 251.333,390.792 249,391.625 246.5,392C 244.709,394.414 243.043,396.914 241.5,399.5C 232.072,407.698 223.572,406.698 216,396.5C 212.288,386.896 209.955,376.896 209,366.5C 204.862,364.673 200.695,362.84 196.5,361C 194.668,357.68 192.668,354.514 190.5,351.5C 191.81,346.333 191.81,341.166 190.5,336C 191.194,331.532 191.86,327.032 192.5,322.5C 192.043,321.702 191.376,321.369 190.5,321.5C 190.5,321.167 190.5,320.833 190.5,320.5C 191.249,319.469 191.915,318.302 192.5,317C 191.594,315.301 191.261,313.467 191.5,311.5C 189.234,311.141 187.401,311.808 186,313.5C 183.834,312.224 181.834,312.557 180,314.5C 177.975,314.172 175.809,314.006 173.5,314C 166.05,312.966 160.55,308.8 157,301.5C 156.617,302.056 156.117,302.389 155.5,302.5C 154.968,297.905 153.635,293.571 151.5,289.5C 154.455,290.159 157.455,290.492 160.5,290.5C 162.017,290.511 163.184,291.177 164,292.5C 164.883,300.551 169.383,305.218 177.5,306.5C 185.828,303.341 192.161,297.841 196.5,290C 197.332,289.312 197.998,289.479 198.5,290.5C 200.049,299.401 200.716,308.401 200.5,317.5C 200.1,328.842 199.933,340.175 200,351.5C 202.38,354.275 205.213,354.942 208.5,353.5C 209.182,350.634 210.516,348.134 212.5,346C 213.332,345.312 213.998,345.479 214.5,346.5C 215.742,351.178 217.075,355.845 218.5,360.5C 219.628,370.266 221.294,379.932 223.5,389.5C 224.518,390.193 225.518,390.859 226.5,391.5C 227.82,392.942 229.486,393.608 231.5,393.5C 232.496,393.586 233.329,393.252 234,392.5C 235.481,388.731 236.648,384.897 237.5,381C 240.209,381.511 242.876,382.345 245.5,383.5C 246.772,383.43 247.938,383.097 249,382.5C 250.145,377.917 250.811,373.251 251,368.5C 253.5,367.333 256,366.167 258.5,365C 260.195,362.785 261.861,360.618 263.5,358.5C 265.376,353.854 267.043,349.187 268.5,344.5C 268.999,347.217 270.165,349.551 272,351.5C 272.495,353.473 272.662,355.473 272.5,357.5C 274.277,357.786 275.944,358.453 277.5,359.5C 279.715,358.785 281.049,357.285 281.5,355C 282.003,350.808 282.669,346.641 283.5,342.5C 284.086,342.291 284.586,341.957 285,341.5C 289.073,325.378 292.073,309.045 294,292.5C 295.649,291.047 297.482,290.047 299.5,289.5C 299.5,289.167 299.5,288.833 299.5,288.5C 301.05,282.71 302.717,277.044 304.5,271.5 Z"/></g>
<g><path style="opacity:0.884" fill="#78658c" d="M 233.5,339.5 C 235.222,351.556 237.222,363.556 239.5,375.5C 239.5,375.833 239.5,376.167 239.5,376.5C 237.486,376.392 235.82,377.058 234.5,378.5C 234.041,367.491 233.374,356.491 232.5,345.5C 232.505,343.304 232.838,341.304 233.5,339.5 Z"/></g>
<g><path style="opacity:0.705" fill="#280f45" d="M 290.5,289.5 C 293.5,289.5 296.5,289.5 299.5,289.5C 297.482,290.047 295.649,291.047 294,292.5C 292.073,309.045 289.073,325.378 285,341.5C 284.586,341.957 284.086,342.291 283.5,342.5C 282.669,346.641 282.003,350.808 281.5,355C 281.049,357.285 279.715,358.785 277.5,359.5C 275.944,358.453 274.277,357.786 272.5,357.5C 272.662,355.473 272.495,353.473 272,351.5C 270.165,349.551 268.999,347.217 268.5,344.5C 267.043,349.187 265.376,353.854 263.5,358.5C 261.861,360.618 260.195,362.785 258.5,365C 256,366.167 253.5,367.333 251,368.5C 250.811,373.251 250.145,377.917 249,382.5C 247.938,383.097 246.772,383.43 245.5,383.5C 242.876,382.345 240.209,381.511 237.5,381C 236.648,384.897 235.481,388.731 234,392.5C 233.329,393.252 232.496,393.586 231.5,393.5C 232.234,392.292 232.567,390.959 232.5,389.5C 233.23,385.939 233.897,382.273 234.5,378.5C 235.82,377.058 237.486,376.392 239.5,376.5C 240.962,377.458 242.295,378.624 243.5,380C 244.784,380.684 245.951,380.517 247,379.5C 247.292,375.118 247.792,370.785 248.5,366.5C 251.009,364.745 253.676,363.245 256.5,362C 260.307,358.267 262.807,353.767 264,348.5C 265.535,337.81 267.202,327.144 269,316.5C 270.023,326.501 271.356,336.501 273,346.5C 274.217,349.994 275.717,353.327 277.5,356.5C 279.111,355.68 279.778,354.346 279.5,352.5C 282.021,340.415 284.855,328.415 288,316.5C 289.808,307.932 290.641,299.265 290.5,290.5C 290.5,290.167 290.5,289.833 290.5,289.5 Z"/></g>
<g><path style="opacity:0.961" fill="#b3a8bf" d="M 250.5,332.5 C 247.671,332.325 246.004,333.658 245.5,336.5C 244.654,348.374 244.321,360.207 244.5,372C 243.911,374.633 242.244,375.8 239.5,375.5C 237.222,363.556 235.222,351.556 233.5,339.5C 234.234,340.878 234.901,342.378 235.5,344C 236.766,344.309 237.933,344.809 239,345.5C 239.333,345.167 239.667,344.833 240,344.5C 240.667,345.833 240.667,347.167 240,348.5C 239.107,347.289 238.274,347.289 237.5,348.5C 236.978,349.607 236.645,350.774 236.5,352C 238.129,356.969 239.962,361.802 242,366.5C 242.87,365.892 243.37,365.059 243.5,364C 242.377,355.536 242.21,347.036 243,338.5C 243.856,336.132 244.69,333.798 245.5,331.5C 247.415,331.216 249.081,331.549 250.5,332.5 Z"/></g>
<g><path style="opacity:0.941" fill="#a092ae" d="M 290.5,290.5 C 290.641,299.265 289.808,307.932 288,316.5C 284.855,328.415 282.021,340.415 279.5,352.5C 278.25,352.423 277.417,351.756 277,350.5C 274.94,332.205 273.107,313.871 271.5,295.5C 273.534,306.95 275.034,318.617 276,330.5C 276.196,332.286 277.029,333.619 278.5,334.5C 280.317,332.584 281.484,330.251 282,327.5C 284.728,314.937 287.561,302.603 290.5,290.5 Z"/></g>
<g><path style="opacity:0.952" fill="#a598b4" d="M 268.5,295.5 C 266.277,314.074 262.943,332.407 258.5,350.5C 257.726,351.711 256.893,351.711 256,350.5C 254.667,345.172 253.334,339.838 252,334.5C 250.667,333.167 249.333,333.167 248,334.5C 247.428,345.179 247.595,355.845 248.5,366.5C 247.792,370.785 247.292,375.118 247,379.5C 245.951,380.517 244.784,380.684 243.5,380C 242.295,378.624 240.962,377.458 239.5,376.5C 239.5,376.167 239.5,375.833 239.5,375.5C 242.244,375.8 243.911,374.633 244.5,372C 244.321,360.207 244.654,348.374 245.5,336.5C 246.004,333.658 247.671,332.325 250.5,332.5C 252.799,333.778 255.132,335.111 257.5,336.5C 258.799,335.91 259.632,334.91 260,333.5C 261.117,324.868 262.117,316.202 263,307.5C 263.647,302.829 265.48,298.829 268.5,295.5 Z"/></g>
<g><path style="opacity:0.955" fill="#867699" d="M 245.5,294.5 C 246.658,303.991 246.825,313.658 246,323.5C 242.911,313.842 242.744,304.175 245.5,294.5 Z"/></g>
</svg>
