<?xml version="1.0" encoding="UTF-8"?>
<!DOCTYPE svg PUBLIC "-//W3C//DTD SVG 1.1//EN" "http://www.w3.org/Graphics/SVG/1.1/DTD/svg11.dtd">
<svg xmlns="http://www.w3.org/2000/svg" version="1.1" width="1080px" height="1080px" style="shape-rendering:geometricPrecision; text-rendering:geometricPrecision; image-rendering:optimizeQuality; fill-rule:evenodd; clip-rule:evenodd" xmlns:xlink="http://www.w3.org/1999/xlink">
<g><path style="opacity:1" fill="#dc2626" d="M -0.5,-0.5 C 179.5,-0.5 359.5,-0.5 539.5,-0.5C 539.5,179.5 539.5,359.5 539.5,539.5C 359.5,539.5 179.5,539.5 -0.5,539.5C -0.5,359.5 -0.5,179.5 -0.5,-0.5 Z"/></g>
<g><path style="opacity:1" fill="#2564eb" d="M 539.5,-0.5 C 719.5,-0.5 899.5,-0.5 1079.5,-0.5C 1079.5,179.5 1079.5,359.5 1079.5,539.5C 899.5,539.5 719.5,539.5 539.5,539.5C 539.5,359.5 539.5,179.5 539.5,-0.5 Z"/></g>
<g><path style="opacity:1" fill="#fefefe" d="M 792.5,100.5 C 840.776,97.0967 883.776,110.263 921.5,140C 971.063,188.048 987.896,245.882 972,313.5C 949.652,385.171 901.152,425.671 826.5,435C 756.102,440.217 701.935,413.383 664,354.5C 641.444,312.418 635.777,268.085 647,221.5C 667.414,157.755 710.247,118.255 775.5,103C 781.331,102.29 786.998,101.457 792.5,100.5 Z"/></g>
<g><path style="opacity:1" fill="#f5c7c7" d="M 207.5,104.5 C 176.662,104.169 145.995,104.502 115.5,105.5C 114.957,105.44 114.624,105.107 114.5,104.5C 145.664,103.17 176.664,103.17 207.5,104.5 Z"/></g>
<g><path style="opacity:1" fill="#fefefe" d="M 115.5,105.5 C 145.995,104.502 176.662,104.169 207.5,104.5C 228.782,137.111 250.449,169.444 272.5,201.5C 292.032,169.131 311.366,136.631 330.5,104C 360.5,103.333 390.5,103.333 420.5,104C 385.776,158.619 351.443,213.453 317.5,268.5C 352.935,322.445 388.602,376.278 424.5,430C 393.5,430.667 362.5,430.667 331.5,430C 310.055,396.735 288.055,363.902 265.5,331.5C 245.768,363.906 226.435,396.573 207.5,429.5C 177.172,430.667 146.839,430.833 116.5,430C 151.796,375.209 186.463,320.042 220.5,264.5C 185.752,211.339 150.752,158.339 115.5,105.5 Z"/></g>
<g><path style="opacity:1" fill="#2664eb" d="M 798.5,172.5 C 851.72,169.902 883.886,194.568 895,246.5C 899.092,273.946 894.759,299.946 882,324.5C 868.207,346.485 848.374,358.985 822.5,362C 771.689,366.691 739.522,344.524 726,295.5C 723.047,278.232 722.713,260.898 725,243.5C 733.089,202.574 757.589,178.907 798.5,172.5 Z"/></g>
<g><path style="opacity:1" fill="#2564eb" d="M -0.5,539.5 C 179.5,539.5 359.5,539.5 539.5,539.5C 539.5,719.5 539.5,899.5 539.5,1079.5C 359.5,1079.5 179.5,1079.5 -0.5,1079.5C -0.5,899.5 -0.5,719.5 -0.5,539.5 Z"/></g>
<g><path style="opacity:1" fill="#dc2626" d="M 539.5,539.5 C 719.5,539.5 899.5,539.5 1079.5,539.5C 1079.5,719.5 1079.5,899.5 1079.5,1079.5C 899.5,1079.5 719.5,1079.5 539.5,1079.5C 539.5,899.5 539.5,719.5 539.5,539.5 Z"/></g>
<g><path style="opacity:1" fill="#fefefe" d="M 252.5,640.5 C 300.776,637.097 343.776,650.263 381.5,680C 431.063,728.048 447.896,785.882 432,853.5C 409.652,925.171 361.152,965.671 286.5,975C 216.102,980.217 161.935,953.383 124,894.5C 101.444,852.418 95.7773,808.085 107,761.5C 127.414,697.755 170.247,658.255 235.5,643C 241.331,642.29 246.998,641.457 252.5,640.5 Z"/></g>
<g><path style="opacity:1" fill="#f5c7c7" d="M 747.5,644.5 C 716.662,644.169 685.995,644.502 655.5,645.5C 654.957,645.44 654.624,645.107 654.5,644.5C 685.664,643.17 716.664,643.17 747.5,644.5 Z"/></g>
<g><path style="opacity:1" fill="#fefefe" d="M 655.5,645.5 C 685.995,644.502 716.662,644.169 747.5,644.5C 768.782,677.111 790.449,709.444 812.5,741.5C 832.032,709.131 851.366,676.631 870.5,644C 900.5,643.333 930.5,643.333 960.5,644C 925.776,698.619 891.443,753.453 857.5,808.5C 892.935,862.445 928.602,916.278 964.5,970C 933.5,970.667 902.5,970.667 871.5,970C 850.055,936.735 828.055,903.902 805.5,871.5C 785.768,903.906 766.435,936.573 747.5,969.5C 717.172,970.667 686.839,970.833 656.5,970C 691.796,915.209 726.463,860.042 760.5,804.5C 725.752,751.339 690.752,698.339 655.5,645.5 Z"/></g>
<g><path style="opacity:1" fill="#2664eb" d="M 258.5,712.5 C 311.72,709.902 343.886,734.568 355,786.5C 359.092,813.946 354.759,839.946 342,864.5C 328.207,886.485 308.374,898.985 282.5,902C 231.689,906.691 199.522,884.524 186,835.5C 183.047,818.232 182.713,800.898 185,783.5C 193.089,742.574 217.589,718.907 258.5,712.5 Z"/></g>
</svg>
